%TF.GenerationSoftware,KiCad,Pcbnew,(6.0.6)*%
%TF.CreationDate,2022-10-04T18:50:56+01:00*%
%TF.ProjectId,VideoTrigger,56696465-6f54-4726-9967-6765722e6b69,rev?*%
%TF.SameCoordinates,Original*%
%TF.FileFunction,Legend,Bot*%
%TF.FilePolarity,Positive*%
%FSLAX46Y46*%
G04 Gerber Fmt 4.6, Leading zero omitted, Abs format (unit mm)*
G04 Created by KiCad (PCBNEW (6.0.6)) date 2022-10-04 18:50:56*
%MOMM*%
%LPD*%
G01*
G04 APERTURE LIST*
%ADD10C,0.150000*%
%ADD11C,0.120000*%
G04 APERTURE END LIST*
D10*
%TO.C,U4*%
X136651904Y-130472380D02*
X136651904Y-131281904D01*
X136604285Y-131377142D01*
X136556666Y-131424761D01*
X136461428Y-131472380D01*
X136270952Y-131472380D01*
X136175714Y-131424761D01*
X136128095Y-131377142D01*
X136080476Y-131281904D01*
X136080476Y-130472380D01*
X135175714Y-130805714D02*
X135175714Y-131472380D01*
X135413809Y-130424761D02*
X135651904Y-131139047D01*
X135032857Y-131139047D01*
%TO.C,J5*%
X204862380Y-124126666D02*
X205576666Y-124126666D01*
X205719523Y-124079047D01*
X205814761Y-123983809D01*
X205862380Y-123840952D01*
X205862380Y-123745714D01*
X204862380Y-125079047D02*
X204862380Y-124602857D01*
X205338571Y-124555238D01*
X205290952Y-124602857D01*
X205243333Y-124698095D01*
X205243333Y-124936190D01*
X205290952Y-125031428D01*
X205338571Y-125079047D01*
X205433809Y-125126666D01*
X205671904Y-125126666D01*
X205767142Y-125079047D01*
X205814761Y-125031428D01*
X205862380Y-124936190D01*
X205862380Y-124698095D01*
X205814761Y-124602857D01*
X205767142Y-124555238D01*
%TO.C,J1*%
X200993333Y-144562380D02*
X200993333Y-145276666D01*
X201040952Y-145419523D01*
X201136190Y-145514761D01*
X201279047Y-145562380D01*
X201374285Y-145562380D01*
X199993333Y-145562380D02*
X200564761Y-145562380D01*
X200279047Y-145562380D02*
X200279047Y-144562380D01*
X200374285Y-144705238D01*
X200469523Y-144800476D01*
X200564761Y-144848095D01*
%TO.C,SW2*%
X126433333Y-130872761D02*
X126290476Y-130920380D01*
X126052380Y-130920380D01*
X125957142Y-130872761D01*
X125909523Y-130825142D01*
X125861904Y-130729904D01*
X125861904Y-130634666D01*
X125909523Y-130539428D01*
X125957142Y-130491809D01*
X126052380Y-130444190D01*
X126242857Y-130396571D01*
X126338095Y-130348952D01*
X126385714Y-130301333D01*
X126433333Y-130206095D01*
X126433333Y-130110857D01*
X126385714Y-130015619D01*
X126338095Y-129968000D01*
X126242857Y-129920380D01*
X126004761Y-129920380D01*
X125861904Y-129968000D01*
X125528571Y-129920380D02*
X125290476Y-130920380D01*
X125100000Y-130206095D01*
X124909523Y-130920380D01*
X124671428Y-129920380D01*
X124338095Y-130015619D02*
X124290476Y-129968000D01*
X124195238Y-129920380D01*
X123957142Y-129920380D01*
X123861904Y-129968000D01*
X123814285Y-130015619D01*
X123766666Y-130110857D01*
X123766666Y-130206095D01*
X123814285Y-130348952D01*
X124385714Y-130920380D01*
X123766666Y-130920380D01*
D11*
%TO.C,U4*%
X137220000Y-134620000D02*
X137220000Y-142300000D01*
X137220000Y-132020000D02*
X135890000Y-132020000D01*
X137220000Y-134620000D02*
X134560000Y-134620000D01*
X137220000Y-142300000D02*
X134560000Y-142300000D01*
X137220000Y-133350000D02*
X137220000Y-132020000D01*
X134560000Y-134620000D02*
X134560000Y-142300000D01*
%TO.C,J5*%
X204015000Y-125910000D02*
X204015000Y-123010000D01*
X197305000Y-125910000D02*
X197305000Y-123010000D01*
X202110000Y-127815000D02*
X199210000Y-127815000D01*
X202110000Y-121105000D02*
X199210000Y-121105000D01*
%TO.C,J1*%
X197305000Y-148410000D02*
X197305000Y-151310000D01*
X204015000Y-148410000D02*
X204015000Y-151310000D01*
X202110000Y-153215000D02*
X199210000Y-153215000D01*
X202110000Y-146505000D02*
X199210000Y-146505000D01*
%TO.C,SW2*%
X114300000Y-143568000D02*
X118400000Y-143568000D01*
X127600000Y-133568000D02*
X127900000Y-133868000D01*
X127900000Y-133868000D02*
X128200000Y-133568000D01*
X122400000Y-143568000D02*
X126500000Y-143568000D01*
X118400000Y-131768000D02*
X114300000Y-131768000D01*
X114300000Y-131768000D02*
X114300000Y-134168000D01*
X114300000Y-141168000D02*
X114300000Y-143568000D01*
X120400000Y-137168000D02*
X120400000Y-138168000D01*
X122400000Y-131768000D02*
X126500000Y-131768000D01*
X120900000Y-137668000D02*
X119900000Y-137668000D01*
X114300000Y-136368000D02*
X114300000Y-138968000D01*
X126500000Y-131768000D02*
X126500000Y-143568000D01*
X128200000Y-133568000D02*
X127600000Y-133568000D01*
X123400000Y-137668000D02*
G75*
G03*
X123400000Y-137668000I-3000000J0D01*
G01*
%TD*%
M02*
