M48
; DRILL file {KiCad (6.0.6)} date Tue Oct  4 18:50:53 2022
; FORMAT={-:-/ absolute / inch / decimal}
; #@! TF.CreationDate,2022-10-04T18:50:53+01:00
; #@! TF.GenerationSoftware,Kicad,Pcbnew,(6.0.6)
; #@! TF.FileFunction,Plated,1,2,PTH
FMAT,2
INCH
; #@! TA.AperFunction,Plated,PTH,ViaDrill
T1C0.0157
; #@! TA.AperFunction,Plated,PTH,ComponentDrill
T2C0.0295
; #@! TA.AperFunction,Plated,PTH,ComponentDrill
T3C0.0315
; #@! TA.AperFunction,Plated,PTH,ComponentDrill
T4C0.0354
; #@! TA.AperFunction,Plated,PTH,ComponentDrill
T5C0.0394
; #@! TA.AperFunction,Plated,PTH,ComponentDrill
T6C0.0591
; #@! TA.AperFunction,Plated,PTH,ComponentDrill
T7C0.0598
; #@! TA.AperFunction,Plated,PTH,ComponentDrill
T8C0.0669
%
G90
G05
T1
X4.9Y-4.6
X5.15Y-5.0
X5.15Y-5.15
X5.15Y-5.2
X5.15Y-5.5
X5.25Y-4.6
X5.5Y-4.55
X5.5Y-5.35
X5.57Y-5.0
X5.57Y-5.33
X5.65Y-4.83
X5.75Y-4.55
X5.75Y-4.7
X6.05Y-4.75
X6.05Y-4.9
X6.1Y-6.06
X6.2Y-4.99
X6.2Y-5.13
X6.52Y-5.79
X6.52Y-6.0
T2
X6.1Y-6.275
X6.4Y-6.275
X7.3Y-4.8
X7.3Y-5.0
X7.6Y-4.8
X7.6Y-5.0
T3
X5.15Y-5.9
X5.45Y-5.9
X5.675Y-4.95
X5.675Y-5.05
X5.675Y-5.15
X5.675Y-5.25
X5.675Y-5.35
X5.675Y-5.45
X5.675Y-5.55
X5.675Y-5.65
X5.675Y-5.75
X5.675Y-5.85
X5.675Y-5.95
X5.675Y-6.05
X5.675Y-6.15
X5.675Y-6.25
X5.8516Y-4.6
X5.975Y-4.95
X5.975Y-5.05
X5.975Y-5.15
X5.975Y-5.25
X5.975Y-5.35
X5.975Y-5.45
X5.975Y-5.55
X5.975Y-5.65
X5.975Y-5.75
X5.975Y-5.85
X5.975Y-5.95
X5.975Y-6.05
X5.975Y-6.15
X5.975Y-6.25
X6.0484Y-4.6
X6.1Y-6.15
X6.1031Y-5.7
X6.2Y-4.6
X6.2Y-4.9
X6.2Y-5.3
X6.2Y-5.4921
X6.3Y-4.6
X6.3Y-4.9
X6.3Y-5.7
X6.4Y-4.6
X6.4Y-4.9
X6.4Y-5.3
X6.4Y-5.5
X6.4Y-6.15
X6.5Y-4.6
X6.5Y-4.9
X6.5Y-6.15
X6.5969Y-5.3
X6.5969Y-5.5
X6.6Y-4.6
X6.6Y-4.9
X6.6969Y-6.15
X6.7Y-4.6
X6.7Y-4.9
X6.8Y-4.6
X6.8Y-4.9
X6.8Y-5.05
X6.8Y-5.35
X6.8Y-5.5
X6.9Y-4.6
X6.9Y-4.9
X6.9504Y-5.0823
X6.9531Y-5.25
X6.9969Y-5.5
X6.9994Y-5.6504
X6.9994Y-5.7504
X6.9994Y-5.8504
X6.9994Y-5.9504
X7.0Y-6.1
X7.0504Y-5.0823
X7.0531Y-6.25
X7.1Y-4.6
X7.1Y-4.9
X7.15Y-5.25
X7.1504Y-5.0823
X7.25Y-5.25
X7.25Y-6.25
X7.2994Y-5.6504
X7.2994Y-5.7504
X7.2994Y-5.8504
X7.2994Y-5.9504
X7.3Y-4.6
X7.3Y-6.1
X7.5Y-5.45
X7.55Y-5.25
X7.6Y-4.6
X7.6Y-5.45
X7.65Y-5.25
X7.7Y-5.45
X7.9Y-5.45
X7.9Y-5.6469
X7.95Y-5.25
X8.05Y-5.375
X8.05Y-5.675
T4
X4.7Y-5.9
X4.8Y-5.9
T5
X4.4646Y-5.3216
X4.4646Y-5.5184
X5.0354Y-5.3216
X5.0354Y-5.42
X5.0354Y-5.5184
X5.1506Y-4.7252
X5.1506Y-4.8252
X5.2506Y-4.7252
X5.2506Y-4.8252
X5.35Y-5.25
X5.35Y-5.35
X5.35Y-5.45
X5.35Y-5.55
X5.3506Y-4.7252
X5.3506Y-4.8252
X6.0941Y-5.8228
X6.0941Y-6.0
X6.35Y-5.8228
X6.35Y-6.0
T6
X7.9Y-4.9
X7.9Y-5.9
T7
X4.66Y-4.82
X4.86Y-4.82
T8
X7.8Y-4.8
X7.8Y-5.0
X7.8Y-5.8
X7.8Y-6.0
X8.0Y-4.8
X8.0Y-5.0
X8.0Y-5.8
X8.0Y-6.0
T6
G00X4.7657Y-5.1995
M15
G01X4.7146Y-5.1995
M16
G05
G00X4.7657Y-5.6405
M15
G01X4.7146Y-5.6405
M16
G05
T0
M30
