%TF.GenerationSoftware,KiCad,Pcbnew,(6.0.6)*%
%TF.CreationDate,2022-10-04T18:50:56+01:00*%
%TF.ProjectId,VideoTrigger,56696465-6f54-4726-9967-6765722e6b69,rev?*%
%TF.SameCoordinates,Original*%
%TF.FileFunction,Copper,L1,Top*%
%TF.FilePolarity,Positive*%
%FSLAX46Y46*%
G04 Gerber Fmt 4.6, Leading zero omitted, Abs format (unit mm)*
G04 Created by KiCad (PCBNEW (6.0.6)) date 2022-10-04 18:50:56*
%MOMM*%
%LPD*%
G01*
G04 APERTURE LIST*
%TA.AperFunction,ComponentPad*%
%ADD10R,1.500000X1.500000*%
%TD*%
%TA.AperFunction,ComponentPad*%
%ADD11C,1.500000*%
%TD*%
%TA.AperFunction,ComponentPad*%
%ADD12R,3.000000X3.000000*%
%TD*%
%TA.AperFunction,ComponentPad*%
%ADD13C,3.000000*%
%TD*%
%TA.AperFunction,ComponentPad*%
%ADD14R,1.600000X1.600000*%
%TD*%
%TA.AperFunction,ComponentPad*%
%ADD15O,1.600000X1.600000*%
%TD*%
%TA.AperFunction,ComponentPad*%
%ADD16O,1.700000X1.700000*%
%TD*%
%TA.AperFunction,ComponentPad*%
%ADD17R,1.700000X1.700000*%
%TD*%
%TA.AperFunction,ComponentPad*%
%ADD18C,2.050000*%
%TD*%
%TA.AperFunction,ComponentPad*%
%ADD19C,2.250000*%
%TD*%
%TA.AperFunction,ComponentPad*%
%ADD20R,1.600000X2.400000*%
%TD*%
%TA.AperFunction,ComponentPad*%
%ADD21O,1.600000X2.400000*%
%TD*%
%TA.AperFunction,ComponentPad*%
%ADD22R,2.400000X1.600000*%
%TD*%
%TA.AperFunction,ComponentPad*%
%ADD23O,2.400000X1.600000*%
%TD*%
%TA.AperFunction,ComponentPad*%
%ADD24R,2.000000X2.000000*%
%TD*%
%TA.AperFunction,ComponentPad*%
%ADD25C,2.000000*%
%TD*%
%TA.AperFunction,ComponentPad*%
%ADD26R,3.200000X2.000000*%
%TD*%
%TA.AperFunction,ComponentPad*%
%ADD27C,1.700000*%
%TD*%
%TA.AperFunction,ComponentPad*%
%ADD28C,1.600000*%
%TD*%
%TA.AperFunction,ComponentPad*%
%ADD29O,1.500000X1.500000*%
%TD*%
%TA.AperFunction,ComponentPad*%
%ADD30R,1.800000X1.800000*%
%TD*%
%TA.AperFunction,ComponentPad*%
%ADD31C,1.800000*%
%TD*%
%TA.AperFunction,ViaPad*%
%ADD32C,0.800000*%
%TD*%
%TA.AperFunction,Conductor*%
%ADD33C,0.250000*%
%TD*%
%TA.AperFunction,Conductor*%
%ADD34C,0.800000*%
%TD*%
G04 APERTURE END LIST*
D10*
%TO.P,Q2,1,E*%
%TO.N,GND*%
X181620000Y-129090000D03*
D11*
%TO.P,Q2,2,B*%
%TO.N,Net-(R6-Pad1)*%
X179080000Y-129090000D03*
%TO.P,Q2,3,C*%
%TO.N,Net-(R5-Pad2)*%
X176540000Y-129090000D03*
%TD*%
D10*
%TO.P,Q1,1,E*%
%TO.N,Net-(R1-Pad1)*%
X190500000Y-138430000D03*
D11*
%TO.P,Q1,2,B*%
%TO.N,Net-(C9-Pad1)*%
X193040000Y-138430000D03*
%TO.P,Q1,3,C*%
%TO.N,+5V*%
X195580000Y-138430000D03*
%TD*%
D12*
%TO.P,J3,1,Pin_1*%
%TO.N,GND*%
X123444000Y-122428000D03*
D13*
%TO.P,J3,2,Pin_2*%
%TO.N,+5V*%
X118364000Y-122428000D03*
%TD*%
D14*
%TO.P,U1,1,~{RESET}/PC6*%
%TO.N,Net-(C7-Pad1)*%
X151765000Y-158750000D03*
D15*
%TO.P,U1,2,PD0*%
%TO.N,unconnected-(U1-Pad2)*%
X151765000Y-156210000D03*
%TO.P,U1,3,PD1*%
%TO.N,unconnected-(U1-Pad3)*%
X151765000Y-153670000D03*
%TO.P,U1,4,PD2*%
%TO.N,CSYNC*%
X151765000Y-151130000D03*
%TO.P,U1,5,PD3*%
%TO.N,FRAME*%
X151765000Y-148590000D03*
%TO.P,U1,6,PD4*%
%TO.N,unconnected-(U1-Pad6)*%
X151765000Y-146050000D03*
%TO.P,U1,7,VCC*%
%TO.N,+5V*%
X151765000Y-143510000D03*
%TO.P,U1,8,GND*%
%TO.N,GND*%
X151765000Y-140970000D03*
%TO.P,U1,9,XTAL1/PB6*%
%TO.N,Net-(C5-Pad2)*%
X151765000Y-138430000D03*
%TO.P,U1,10,XTAL2/PB7*%
%TO.N,Net-(C6-Pad2)*%
X151765000Y-135890000D03*
%TO.P,U1,11,PD5*%
%TO.N,unconnected-(U1-Pad11)*%
X151765000Y-133350000D03*
%TO.P,U1,12,PD6*%
%TO.N,ARM*%
X151765000Y-130810000D03*
%TO.P,U1,13,PD7*%
%TO.N,ARMN*%
X151765000Y-128270000D03*
%TO.P,U1,14,PB0*%
%TO.N,unconnected-(U1-Pad14)*%
X151765000Y-125730000D03*
%TO.P,U1,15,PB1*%
%TO.N,unconnected-(U1-Pad15)*%
X144145000Y-125730000D03*
%TO.P,U1,16,PB2*%
%TO.N,SW*%
X144145000Y-128270000D03*
%TO.P,U1,17,PB3*%
%TO.N,ENCA*%
X144145000Y-130810000D03*
%TO.P,U1,18,PB4*%
%TO.N,ENCB*%
X144145000Y-133350000D03*
%TO.P,U1,19,PB5*%
%TO.N,Net-(J2-Pad3)*%
X144145000Y-135890000D03*
%TO.P,U1,20,AVCC*%
%TO.N,+5V*%
X144145000Y-138430000D03*
%TO.P,U1,21,AREF*%
%TO.N,unconnected-(U1-Pad21)*%
X144145000Y-140970000D03*
%TO.P,U1,22,GND*%
%TO.N,GND*%
X144145000Y-143510000D03*
%TO.P,U1,23,PC0*%
%TO.N,unconnected-(U1-Pad23)*%
X144145000Y-146050000D03*
%TO.P,U1,24,PC1*%
%TO.N,unconnected-(U1-Pad24)*%
X144145000Y-148590000D03*
%TO.P,U1,25,PC2*%
%TO.N,unconnected-(U1-Pad25)*%
X144145000Y-151130000D03*
%TO.P,U1,26,PC3*%
%TO.N,unconnected-(U1-Pad26)*%
X144145000Y-153670000D03*
%TO.P,U1,27,PC4*%
%TO.N,SDA*%
X144145000Y-156210000D03*
%TO.P,U1,28,PC5*%
%TO.N,SCL*%
X144145000Y-158750000D03*
%TD*%
D11*
%TO.P,Y1,1,1*%
%TO.N,Net-(C6-Pad2)*%
X157480000Y-134620000D03*
%TO.P,Y1,2,2*%
%TO.N,Net-(C5-Pad2)*%
X157480000Y-139500000D03*
%TD*%
D16*
%TO.P,U4,4,SDA*%
%TO.N,SDA*%
X135890000Y-140970000D03*
%TO.P,U4,3,SCL*%
%TO.N,SCL*%
X135890000Y-138430000D03*
%TO.P,U4,2,VCC*%
%TO.N,+5V*%
X135890000Y-135890000D03*
D17*
%TO.P,U4,1,GND*%
%TO.N,GND*%
X135890000Y-133350000D03*
%TD*%
D18*
%TO.P,J5,1,In*%
%TO.N,Net-(D3-Pad2)*%
X200660000Y-124460000D03*
D19*
%TO.P,J5,2,Ext*%
%TO.N,GND*%
X203200000Y-127000000D03*
X198120000Y-127000000D03*
X198120000Y-121920000D03*
X203200000Y-121920000D03*
%TD*%
%TO.P,J1,2,Ext*%
%TO.N,GND*%
X198120000Y-147320000D03*
X198120000Y-152400000D03*
X203200000Y-152400000D03*
X203200000Y-147320000D03*
D18*
%TO.P,J1,1,In*%
%TO.N,Net-(C9-Pad2)*%
X200660000Y-149860000D03*
%TD*%
D20*
%TO.P,U3,1,~{R}*%
%TO.N,ARM*%
X157480000Y-124460000D03*
D21*
%TO.P,U3,2,J*%
%TO.N,+5V*%
X160020000Y-124460000D03*
%TO.P,U3,3,~{K}*%
X162560000Y-124460000D03*
%TO.P,U3,4,C*%
%TO.N,CSYNC*%
X165100000Y-124460000D03*
%TO.P,U3,5,~{S}*%
%TO.N,+5V*%
X167640000Y-124460000D03*
%TO.P,U3,6,Q*%
%TO.N,unconnected-(U3-Pad6)*%
X170180000Y-124460000D03*
%TO.P,U3,7,~{Q}*%
%TO.N,Net-(D4-Pad1)*%
X172720000Y-124460000D03*
%TO.P,U3,8,GND*%
%TO.N,GND*%
X175260000Y-124460000D03*
%TO.P,U3,9,~{Q}*%
%TO.N,Net-(D3-Pad1)*%
X175260000Y-116840000D03*
%TO.P,U3,10,Q*%
%TO.N,unconnected-(U3-Pad10)*%
X172720000Y-116840000D03*
%TO.P,U3,11,~{S}*%
%TO.N,+5V*%
X170180000Y-116840000D03*
%TO.P,U3,12,C*%
%TO.N,Net-(R5-Pad2)*%
X167640000Y-116840000D03*
%TO.P,U3,13,~{K}*%
%TO.N,+5V*%
X165100000Y-116840000D03*
%TO.P,U3,14,J*%
X162560000Y-116840000D03*
%TO.P,U3,15,~{R}*%
%TO.N,ARMN*%
X160020000Y-116840000D03*
%TO.P,U3,16,VCC*%
%TO.N,+5V*%
X157480000Y-116840000D03*
%TD*%
D22*
%TO.P,U2,1,CSYNC*%
%TO.N,CSYNC*%
X177785000Y-143520000D03*
D23*
%TO.P,U2,2,VIDEO*%
%TO.N,Net-(C3-Pad1)*%
X177785000Y-146060000D03*
%TO.P,U2,3,FRAME*%
%TO.N,FRAME*%
X177785000Y-148600000D03*
%TO.P,U2,4,GND*%
%TO.N,GND*%
X177785000Y-151140000D03*
%TO.P,U2,5,BURST*%
%TO.N,unconnected-(U2-Pad5)*%
X185405000Y-151140000D03*
%TO.P,U2,6,INT*%
%TO.N,Net-(C4-Pad1)*%
X185405000Y-148600000D03*
%TO.P,U2,7,O/E*%
%TO.N,unconnected-(U2-Pad7)*%
X185405000Y-146060000D03*
%TO.P,U2,8,VCC*%
%TO.N,+5V*%
X185405000Y-143520000D03*
%TD*%
D24*
%TO.P,SW2,A,A*%
%TO.N,ENCA*%
X127900000Y-135168000D03*
D25*
%TO.P,SW2,B,B*%
%TO.N,ENCB*%
X127900000Y-140168000D03*
%TO.P,SW2,C,C*%
%TO.N,GND*%
X127900000Y-137668000D03*
D26*
%TO.P,SW2,MP*%
%TO.N,N/C*%
X120400000Y-143268000D03*
X120400000Y-132068000D03*
D25*
%TO.P,SW2,S1,S1*%
%TO.N,GND*%
X113400000Y-140168000D03*
%TO.P,SW2,S2,S2*%
%TO.N,SW*%
X113400000Y-135168000D03*
%TD*%
D27*
%TO.P,SW1,1,1*%
%TO.N,Net-(C7-Pad1)*%
X154790000Y-152400000D03*
D17*
X161290000Y-152400000D03*
D27*
%TO.P,SW1,2,2*%
%TO.N,GND*%
X154790000Y-147900000D03*
X161290000Y-147900000D03*
%TD*%
D28*
%TO.P,R9,1*%
%TO.N,GND*%
X201930000Y-133350000D03*
D15*
%TO.P,R9,2*%
%TO.N,Net-(R1-Pad1)*%
X194310000Y-133350000D03*
%TD*%
%TO.P,R8,2*%
%TO.N,Net-(C9-Pad1)*%
X204470000Y-136525000D03*
D28*
%TO.P,R8,1*%
%TO.N,Net-(C9-Pad2)*%
X204470000Y-144145000D03*
%TD*%
%TO.P,R7,1*%
%TO.N,+5V*%
X185420000Y-116840000D03*
D15*
%TO.P,R7,2*%
%TO.N,Net-(D3-Pad2)*%
X193040000Y-116840000D03*
%TD*%
D28*
%TO.P,R6,1*%
%TO.N,Net-(R6-Pad1)*%
X172720000Y-128270000D03*
D15*
%TO.P,R6,2*%
%TO.N,CSYNC*%
X172720000Y-135890000D03*
%TD*%
D28*
%TO.P,R5,1*%
%TO.N,+5V*%
X180340000Y-124460000D03*
D15*
%TO.P,R5,2*%
%TO.N,Net-(R5-Pad2)*%
X180340000Y-116840000D03*
%TD*%
D28*
%TO.P,R4,1*%
%TO.N,+5V*%
X154940000Y-156210000D03*
D15*
%TO.P,R4,2*%
%TO.N,Net-(C7-Pad1)*%
X162560000Y-156210000D03*
%TD*%
D28*
%TO.P,R3,1*%
%TO.N,Net-(J2-Pad3)*%
X138430000Y-149860000D03*
D15*
%TO.P,R3,2*%
%TO.N,Net-(R3-Pad2)*%
X130810000Y-149860000D03*
%TD*%
D28*
%TO.P,R2,1*%
%TO.N,GND*%
X177800000Y-154940000D03*
D15*
%TO.P,R2,2*%
%TO.N,Net-(C4-Pad1)*%
X185420000Y-154940000D03*
%TD*%
D28*
%TO.P,R1,1*%
%TO.N,Net-(R1-Pad1)*%
X191770000Y-133350000D03*
D15*
%TO.P,R1,2*%
%TO.N,Net-(C2-Pad1)*%
X184150000Y-133350000D03*
%TD*%
D17*
%TO.P,J2,1,Pin_1*%
%TO.N,ENCB*%
X130825000Y-122560000D03*
D16*
%TO.P,J2,2,Pin_2*%
%TO.N,+5V*%
X130825000Y-120020000D03*
%TO.P,J2,3,Pin_3*%
%TO.N,Net-(J2-Pad3)*%
X133365000Y-122560000D03*
%TO.P,J2,4,Pin_4*%
%TO.N,ENCA*%
X133365000Y-120020000D03*
%TO.P,J2,5,Pin_5*%
%TO.N,Net-(C7-Pad1)*%
X135905000Y-122560000D03*
%TO.P,J2,6,Pin_6*%
%TO.N,GND*%
X135905000Y-120020000D03*
%TD*%
D10*
%TO.P,D4,1,K*%
%TO.N,Net-(D4-Pad1)*%
X185420000Y-127000000D03*
D29*
%TO.P,D4,2,A*%
%TO.N,Net-(D3-Pad2)*%
X193040000Y-127000000D03*
%TD*%
D10*
%TO.P,D3,1,K*%
%TO.N,Net-(D3-Pad1)*%
X185420000Y-121920000D03*
D29*
%TO.P,D3,2,A*%
%TO.N,Net-(D3-Pad2)*%
X193040000Y-121920000D03*
%TD*%
D10*
%TO.P,D2,1,K*%
%TO.N,+5V*%
X154940000Y-159385000D03*
D29*
%TO.P,D2,2,A*%
%TO.N,Net-(C7-Pad1)*%
X162560000Y-159385000D03*
%TD*%
D30*
%TO.P,D1,1,K*%
%TO.N,GND*%
X119380000Y-149860000D03*
D31*
%TO.P,D1,2,A*%
%TO.N,Net-(R3-Pad2)*%
X121920000Y-149860000D03*
%TD*%
D28*
%TO.P,C9,1*%
%TO.N,Net-(C9-Pad1)*%
X200660000Y-138430000D03*
%TO.P,C9,2*%
%TO.N,Net-(C9-Pad2)*%
X200660000Y-143430000D03*
%TD*%
%TO.P,C8,1*%
%TO.N,+5V*%
X153630000Y-116840000D03*
%TO.P,C8,2*%
%TO.N,GND*%
X148630000Y-116840000D03*
%TD*%
%TO.P,C7,1*%
%TO.N,Net-(C7-Pad1)*%
X165100000Y-156210000D03*
%TO.P,C7,2*%
%TO.N,GND*%
X170100000Y-156210000D03*
%TD*%
%TO.P,C6,1*%
%TO.N,GND*%
X167560000Y-134620000D03*
%TO.P,C6,2*%
%TO.N,Net-(C6-Pad2)*%
X162560000Y-134620000D03*
%TD*%
%TO.P,C5,1*%
%TO.N,GND*%
X167560000Y-139700000D03*
%TO.P,C5,2*%
%TO.N,Net-(C5-Pad2)*%
X162560000Y-139700000D03*
%TD*%
%TO.P,C4,1*%
%TO.N,Net-(C4-Pad1)*%
X184150000Y-158750000D03*
%TO.P,C4,2*%
%TO.N,GND*%
X179150000Y-158750000D03*
%TD*%
%TO.P,C3,2*%
%TO.N,Net-(C2-Pad1)*%
X177720000Y-139700000D03*
%TO.P,C3,1*%
%TO.N,Net-(C3-Pad1)*%
X172720000Y-139700000D03*
%TD*%
%TO.P,C2,1*%
%TO.N,Net-(C2-Pad1)*%
X181610000Y-133350000D03*
%TO.P,C2,2*%
%TO.N,GND*%
X176610000Y-133350000D03*
%TD*%
%TO.P,C1,1*%
%TO.N,+5V*%
X155020000Y-144780000D03*
%TO.P,C1,2*%
%TO.N,GND*%
X160020000Y-144780000D03*
%TD*%
D32*
%TO.N,Net-(J2-Pad3)*%
X141478000Y-135382000D03*
X141478000Y-127000000D03*
%TO.N,Net-(C7-Pad1)*%
X143510000Y-122682000D03*
X154940000Y-153924000D03*
%TO.N,ARM*%
X157480000Y-130302000D03*
X157480000Y-126746000D03*
%TO.N,GND*%
X165608000Y-147066000D03*
X165608000Y-152400000D03*
%TO.N,+5V*%
X146050000Y-119380000D03*
X146050000Y-115570000D03*
X139700000Y-115570000D03*
X139700000Y-135890000D03*
%TO.N,ENCB*%
X130810000Y-139700000D03*
X130810000Y-132080000D03*
X130810000Y-127000000D03*
X130810000Y-130810000D03*
%TO.N,ARMN*%
X153670000Y-120650000D03*
X153670000Y-124460000D03*
%TO.N,GND*%
X133350000Y-116840000D03*
X124460000Y-116840000D03*
%TD*%
D33*
%TO.N,Net-(J2-Pad3)*%
X141478000Y-127000000D02*
X141478000Y-135382000D01*
%TO.N,Net-(C7-Pad1)*%
X146050000Y-125222000D02*
X143510000Y-122682000D01*
X146050000Y-126746000D02*
X146050000Y-125222000D01*
X146050000Y-148082000D02*
X146050000Y-126746000D01*
X149860000Y-151892000D02*
X146050000Y-148082000D01*
X150285801Y-152317801D02*
X149860000Y-151892000D01*
X152825801Y-152317801D02*
X150285801Y-152317801D01*
X154432000Y-153924000D02*
X153162000Y-152654000D01*
X154940000Y-153924000D02*
X154432000Y-153924000D01*
X153162000Y-152654000D02*
X152825801Y-152317801D01*
%TO.N,ARM*%
X157480000Y-130302000D02*
X157480000Y-126746000D01*
D34*
%TO.N,GND*%
X165608000Y-152400000D02*
X165608000Y-147066000D01*
%TO.N,+5V*%
X146050000Y-115570000D02*
X146050000Y-119380000D01*
X139700000Y-115570000D02*
X139700000Y-135890000D01*
D33*
%TO.N,ENCB*%
X130810000Y-132080000D02*
X130810000Y-139700000D01*
X130810000Y-130810000D02*
X130810000Y-127000000D01*
%TO.N,ARMN*%
X153670000Y-123190000D02*
X153670000Y-124460000D01*
X153670000Y-120650000D02*
X153670000Y-123190000D01*
%TO.N,Net-(D4-Pad1)*%
X181610000Y-120650000D02*
X185420000Y-124460000D01*
X185420000Y-124460000D02*
X185420000Y-127000000D01*
X175260000Y-120650000D02*
X181610000Y-120650000D01*
X172720000Y-123190000D02*
X175260000Y-120650000D01*
X172720000Y-124460000D02*
X172720000Y-123190000D01*
D34*
%TO.N,GND*%
X124460000Y-116840000D02*
X133350000Y-116840000D01*
%TD*%
M02*
