%TF.GenerationSoftware,KiCad,Pcbnew,(6.0.6)*%
%TF.CreationDate,2022-10-04T18:50:56+01:00*%
%TF.ProjectId,VideoTrigger,56696465-6f54-4726-9967-6765722e6b69,rev?*%
%TF.SameCoordinates,Original*%
%TF.FileFunction,Legend,Top*%
%TF.FilePolarity,Positive*%
%FSLAX46Y46*%
G04 Gerber Fmt 4.6, Leading zero omitted, Abs format (unit mm)*
G04 Created by KiCad (PCBNEW (6.0.6)) date 2022-10-04 18:50:56*
%MOMM*%
%LPD*%
G01*
G04 APERTURE LIST*
%ADD10C,0.150000*%
%ADD11C,0.120000*%
G04 APERTURE END LIST*
D10*
%TO.C,Q2*%
X184054761Y-130087619D02*
X183959523Y-130040000D01*
X183864285Y-129944761D01*
X183721428Y-129801904D01*
X183626190Y-129754285D01*
X183530952Y-129754285D01*
X183578571Y-129992380D02*
X183483333Y-129944761D01*
X183388095Y-129849523D01*
X183340476Y-129659047D01*
X183340476Y-129325714D01*
X183388095Y-129135238D01*
X183483333Y-129040000D01*
X183578571Y-128992380D01*
X183769047Y-128992380D01*
X183864285Y-129040000D01*
X183959523Y-129135238D01*
X184007142Y-129325714D01*
X184007142Y-129659047D01*
X183959523Y-129849523D01*
X183864285Y-129944761D01*
X183769047Y-129992380D01*
X183578571Y-129992380D01*
X184388095Y-129087619D02*
X184435714Y-129040000D01*
X184530952Y-128992380D01*
X184769047Y-128992380D01*
X184864285Y-129040000D01*
X184911904Y-129087619D01*
X184959523Y-129182857D01*
X184959523Y-129278095D01*
X184911904Y-129420952D01*
X184340476Y-129992380D01*
X184959523Y-129992380D01*
%TO.C,Q1*%
X187864761Y-138977619D02*
X187769523Y-138930000D01*
X187674285Y-138834761D01*
X187531428Y-138691904D01*
X187436190Y-138644285D01*
X187340952Y-138644285D01*
X187388571Y-138882380D02*
X187293333Y-138834761D01*
X187198095Y-138739523D01*
X187150476Y-138549047D01*
X187150476Y-138215714D01*
X187198095Y-138025238D01*
X187293333Y-137930000D01*
X187388571Y-137882380D01*
X187579047Y-137882380D01*
X187674285Y-137930000D01*
X187769523Y-138025238D01*
X187817142Y-138215714D01*
X187817142Y-138549047D01*
X187769523Y-138739523D01*
X187674285Y-138834761D01*
X187579047Y-138882380D01*
X187388571Y-138882380D01*
X188769523Y-138882380D02*
X188198095Y-138882380D01*
X188483809Y-138882380D02*
X188483809Y-137882380D01*
X188388571Y-138025238D01*
X188293333Y-138120476D01*
X188198095Y-138168095D01*
%TO.C,J3*%
X120570666Y-126960380D02*
X120570666Y-127674666D01*
X120523047Y-127817523D01*
X120427809Y-127912761D01*
X120284952Y-127960380D01*
X120189714Y-127960380D01*
X120951619Y-126960380D02*
X121570666Y-126960380D01*
X121237333Y-127341333D01*
X121380190Y-127341333D01*
X121475428Y-127388952D01*
X121523047Y-127436571D01*
X121570666Y-127531809D01*
X121570666Y-127769904D01*
X121523047Y-127865142D01*
X121475428Y-127912761D01*
X121380190Y-127960380D01*
X121094476Y-127960380D01*
X120999238Y-127912761D01*
X120951619Y-127865142D01*
%TO.C,U1*%
X147193095Y-160532380D02*
X147193095Y-161341904D01*
X147240714Y-161437142D01*
X147288333Y-161484761D01*
X147383571Y-161532380D01*
X147574047Y-161532380D01*
X147669285Y-161484761D01*
X147716904Y-161437142D01*
X147764523Y-161341904D01*
X147764523Y-160532380D01*
X148764523Y-161532380D02*
X148193095Y-161532380D01*
X148478809Y-161532380D02*
X148478809Y-160532380D01*
X148383571Y-160675238D01*
X148288333Y-160770476D01*
X148193095Y-160818095D01*
%TO.C,Y1*%
X160981190Y-137536190D02*
X161457380Y-137536190D01*
X160457380Y-137869523D02*
X160981190Y-137536190D01*
X160457380Y-137202857D01*
X161457380Y-136345714D02*
X161457380Y-136917142D01*
X161457380Y-136631428D02*
X160457380Y-136631428D01*
X160600238Y-136726666D01*
X160695476Y-136821904D01*
X160743095Y-136917142D01*
%TO.C,U3*%
X154602380Y-121411904D02*
X155411904Y-121411904D01*
X155507142Y-121364285D01*
X155554761Y-121316666D01*
X155602380Y-121221428D01*
X155602380Y-121030952D01*
X155554761Y-120935714D01*
X155507142Y-120888095D01*
X155411904Y-120840476D01*
X154602380Y-120840476D01*
X154602380Y-120459523D02*
X154602380Y-119840476D01*
X154983333Y-120173809D01*
X154983333Y-120030952D01*
X155030952Y-119935714D01*
X155078571Y-119888095D01*
X155173809Y-119840476D01*
X155411904Y-119840476D01*
X155507142Y-119888095D01*
X155554761Y-119935714D01*
X155602380Y-120030952D01*
X155602380Y-120316666D01*
X155554761Y-120411904D01*
X155507142Y-120459523D01*
%TO.C,U2*%
X180833095Y-140642380D02*
X180833095Y-141451904D01*
X180880714Y-141547142D01*
X180928333Y-141594761D01*
X181023571Y-141642380D01*
X181214047Y-141642380D01*
X181309285Y-141594761D01*
X181356904Y-141547142D01*
X181404523Y-141451904D01*
X181404523Y-140642380D01*
X181833095Y-140737619D02*
X181880714Y-140690000D01*
X181975952Y-140642380D01*
X182214047Y-140642380D01*
X182309285Y-140690000D01*
X182356904Y-140737619D01*
X182404523Y-140832857D01*
X182404523Y-140928095D01*
X182356904Y-141070952D01*
X181785476Y-141642380D01*
X182404523Y-141642380D01*
%TO.C,SW1*%
X162496666Y-151534761D02*
X162639523Y-151582380D01*
X162877619Y-151582380D01*
X162972857Y-151534761D01*
X163020476Y-151487142D01*
X163068095Y-151391904D01*
X163068095Y-151296666D01*
X163020476Y-151201428D01*
X162972857Y-151153809D01*
X162877619Y-151106190D01*
X162687142Y-151058571D01*
X162591904Y-151010952D01*
X162544285Y-150963333D01*
X162496666Y-150868095D01*
X162496666Y-150772857D01*
X162544285Y-150677619D01*
X162591904Y-150630000D01*
X162687142Y-150582380D01*
X162925238Y-150582380D01*
X163068095Y-150630000D01*
X163401428Y-150582380D02*
X163639523Y-151582380D01*
X163830000Y-150868095D01*
X164020476Y-151582380D01*
X164258571Y-150582380D01*
X165163333Y-151582380D02*
X164591904Y-151582380D01*
X164877619Y-151582380D02*
X164877619Y-150582380D01*
X164782380Y-150725238D01*
X164687142Y-150820476D01*
X164591904Y-150868095D01*
%TO.C,R9*%
X204303333Y-133802380D02*
X203970000Y-133326190D01*
X203731904Y-133802380D02*
X203731904Y-132802380D01*
X204112857Y-132802380D01*
X204208095Y-132850000D01*
X204255714Y-132897619D01*
X204303333Y-132992857D01*
X204303333Y-133135714D01*
X204255714Y-133230952D01*
X204208095Y-133278571D01*
X204112857Y-133326190D01*
X203731904Y-133326190D01*
X204779523Y-133802380D02*
X204970000Y-133802380D01*
X205065238Y-133754761D01*
X205112857Y-133707142D01*
X205208095Y-133564285D01*
X205255714Y-133373809D01*
X205255714Y-132992857D01*
X205208095Y-132897619D01*
X205160476Y-132850000D01*
X205065238Y-132802380D01*
X204874761Y-132802380D01*
X204779523Y-132850000D01*
X204731904Y-132897619D01*
X204684285Y-132992857D01*
X204684285Y-133230952D01*
X204731904Y-133326190D01*
X204779523Y-133373809D01*
X204874761Y-133421428D01*
X205065238Y-133421428D01*
X205160476Y-133373809D01*
X205208095Y-133326190D01*
X205255714Y-133230952D01*
%TO.C,R8*%
X207462380Y-144311666D02*
X206986190Y-144645000D01*
X207462380Y-144883095D02*
X206462380Y-144883095D01*
X206462380Y-144502142D01*
X206510000Y-144406904D01*
X206557619Y-144359285D01*
X206652857Y-144311666D01*
X206795714Y-144311666D01*
X206890952Y-144359285D01*
X206938571Y-144406904D01*
X206986190Y-144502142D01*
X206986190Y-144883095D01*
X206890952Y-143740238D02*
X206843333Y-143835476D01*
X206795714Y-143883095D01*
X206700476Y-143930714D01*
X206652857Y-143930714D01*
X206557619Y-143883095D01*
X206510000Y-143835476D01*
X206462380Y-143740238D01*
X206462380Y-143549761D01*
X206510000Y-143454523D01*
X206557619Y-143406904D01*
X206652857Y-143359285D01*
X206700476Y-143359285D01*
X206795714Y-143406904D01*
X206843333Y-143454523D01*
X206890952Y-143549761D01*
X206890952Y-143740238D01*
X206938571Y-143835476D01*
X206986190Y-143883095D01*
X207081428Y-143930714D01*
X207271904Y-143930714D01*
X207367142Y-143883095D01*
X207414761Y-143835476D01*
X207462380Y-143740238D01*
X207462380Y-143549761D01*
X207414761Y-143454523D01*
X207367142Y-143406904D01*
X207271904Y-143359285D01*
X207081428Y-143359285D01*
X206986190Y-143406904D01*
X206938571Y-143454523D01*
X206890952Y-143549761D01*
%TO.C,R7*%
X189063333Y-114922380D02*
X188730000Y-114446190D01*
X188491904Y-114922380D02*
X188491904Y-113922380D01*
X188872857Y-113922380D01*
X188968095Y-113970000D01*
X189015714Y-114017619D01*
X189063333Y-114112857D01*
X189063333Y-114255714D01*
X189015714Y-114350952D01*
X188968095Y-114398571D01*
X188872857Y-114446190D01*
X188491904Y-114446190D01*
X189396666Y-113922380D02*
X190063333Y-113922380D01*
X189634761Y-114922380D01*
%TO.C,R6*%
X175542380Y-132246666D02*
X175066190Y-132580000D01*
X175542380Y-132818095D02*
X174542380Y-132818095D01*
X174542380Y-132437142D01*
X174590000Y-132341904D01*
X174637619Y-132294285D01*
X174732857Y-132246666D01*
X174875714Y-132246666D01*
X174970952Y-132294285D01*
X175018571Y-132341904D01*
X175066190Y-132437142D01*
X175066190Y-132818095D01*
X174542380Y-131389523D02*
X174542380Y-131580000D01*
X174590000Y-131675238D01*
X174637619Y-131722857D01*
X174780476Y-131818095D01*
X174970952Y-131865714D01*
X175351904Y-131865714D01*
X175447142Y-131818095D01*
X175494761Y-131770476D01*
X175542380Y-131675238D01*
X175542380Y-131484761D01*
X175494761Y-131389523D01*
X175447142Y-131341904D01*
X175351904Y-131294285D01*
X175113809Y-131294285D01*
X175018571Y-131341904D01*
X174970952Y-131389523D01*
X174923333Y-131484761D01*
X174923333Y-131675238D01*
X174970952Y-131770476D01*
X175018571Y-131818095D01*
X175113809Y-131865714D01*
%TO.C,R5*%
X178422380Y-120816666D02*
X177946190Y-121150000D01*
X178422380Y-121388095D02*
X177422380Y-121388095D01*
X177422380Y-121007142D01*
X177470000Y-120911904D01*
X177517619Y-120864285D01*
X177612857Y-120816666D01*
X177755714Y-120816666D01*
X177850952Y-120864285D01*
X177898571Y-120911904D01*
X177946190Y-121007142D01*
X177946190Y-121388095D01*
X177422380Y-119911904D02*
X177422380Y-120388095D01*
X177898571Y-120435714D01*
X177850952Y-120388095D01*
X177803333Y-120292857D01*
X177803333Y-120054761D01*
X177850952Y-119959523D01*
X177898571Y-119911904D01*
X177993809Y-119864285D01*
X178231904Y-119864285D01*
X178327142Y-119911904D01*
X178374761Y-119959523D01*
X178422380Y-120054761D01*
X178422380Y-120292857D01*
X178374761Y-120388095D01*
X178327142Y-120435714D01*
%TO.C,R4*%
X163663333Y-154292380D02*
X163330000Y-153816190D01*
X163091904Y-154292380D02*
X163091904Y-153292380D01*
X163472857Y-153292380D01*
X163568095Y-153340000D01*
X163615714Y-153387619D01*
X163663333Y-153482857D01*
X163663333Y-153625714D01*
X163615714Y-153720952D01*
X163568095Y-153768571D01*
X163472857Y-153816190D01*
X163091904Y-153816190D01*
X164520476Y-153625714D02*
X164520476Y-154292380D01*
X164282380Y-153244761D02*
X164044285Y-153959047D01*
X164663333Y-153959047D01*
%TO.C,R3*%
X134453333Y-152682380D02*
X134120000Y-152206190D01*
X133881904Y-152682380D02*
X133881904Y-151682380D01*
X134262857Y-151682380D01*
X134358095Y-151730000D01*
X134405714Y-151777619D01*
X134453333Y-151872857D01*
X134453333Y-152015714D01*
X134405714Y-152110952D01*
X134358095Y-152158571D01*
X134262857Y-152206190D01*
X133881904Y-152206190D01*
X134786666Y-151682380D02*
X135405714Y-151682380D01*
X135072380Y-152063333D01*
X135215238Y-152063333D01*
X135310476Y-152110952D01*
X135358095Y-152158571D01*
X135405714Y-152253809D01*
X135405714Y-152491904D01*
X135358095Y-152587142D01*
X135310476Y-152634761D01*
X135215238Y-152682380D01*
X134929523Y-152682380D01*
X134834285Y-152634761D01*
X134786666Y-152587142D01*
%TO.C,R2*%
X187793333Y-155392380D02*
X187460000Y-154916190D01*
X187221904Y-155392380D02*
X187221904Y-154392380D01*
X187602857Y-154392380D01*
X187698095Y-154440000D01*
X187745714Y-154487619D01*
X187793333Y-154582857D01*
X187793333Y-154725714D01*
X187745714Y-154820952D01*
X187698095Y-154868571D01*
X187602857Y-154916190D01*
X187221904Y-154916190D01*
X188174285Y-154487619D02*
X188221904Y-154440000D01*
X188317142Y-154392380D01*
X188555238Y-154392380D01*
X188650476Y-154440000D01*
X188698095Y-154487619D01*
X188745714Y-154582857D01*
X188745714Y-154678095D01*
X188698095Y-154820952D01*
X188126666Y-155392380D01*
X188745714Y-155392380D01*
%TO.C,R1*%
X187793333Y-136172380D02*
X187460000Y-135696190D01*
X187221904Y-136172380D02*
X187221904Y-135172380D01*
X187602857Y-135172380D01*
X187698095Y-135220000D01*
X187745714Y-135267619D01*
X187793333Y-135362857D01*
X187793333Y-135505714D01*
X187745714Y-135600952D01*
X187698095Y-135648571D01*
X187602857Y-135696190D01*
X187221904Y-135696190D01*
X188745714Y-136172380D02*
X188174285Y-136172380D01*
X188460000Y-136172380D02*
X188460000Y-135172380D01*
X188364761Y-135315238D01*
X188269523Y-135410476D01*
X188174285Y-135458095D01*
%TO.C,J2*%
X128161666Y-126452380D02*
X128161666Y-127166666D01*
X128114047Y-127309523D01*
X128018809Y-127404761D01*
X127875952Y-127452380D01*
X127780714Y-127452380D01*
X128590238Y-126547619D02*
X128637857Y-126500000D01*
X128733095Y-126452380D01*
X128971190Y-126452380D01*
X129066428Y-126500000D01*
X129114047Y-126547619D01*
X129161666Y-126642857D01*
X129161666Y-126738095D01*
X129114047Y-126880952D01*
X128542619Y-127452380D01*
X129161666Y-127452380D01*
%TO.C,D4*%
X188491904Y-125532380D02*
X188491904Y-124532380D01*
X188730000Y-124532380D01*
X188872857Y-124580000D01*
X188968095Y-124675238D01*
X189015714Y-124770476D01*
X189063333Y-124960952D01*
X189063333Y-125103809D01*
X189015714Y-125294285D01*
X188968095Y-125389523D01*
X188872857Y-125484761D01*
X188730000Y-125532380D01*
X188491904Y-125532380D01*
X189920476Y-124865714D02*
X189920476Y-125532380D01*
X189682380Y-124484761D02*
X189444285Y-125199047D01*
X190063333Y-125199047D01*
X185158095Y-125702380D02*
X185158095Y-124702380D01*
X185729523Y-125702380D02*
X185300952Y-125130952D01*
X185729523Y-124702380D02*
X185158095Y-125273809D01*
%TO.C,D3*%
X188491904Y-120452380D02*
X188491904Y-119452380D01*
X188730000Y-119452380D01*
X188872857Y-119500000D01*
X188968095Y-119595238D01*
X189015714Y-119690476D01*
X189063333Y-119880952D01*
X189063333Y-120023809D01*
X189015714Y-120214285D01*
X188968095Y-120309523D01*
X188872857Y-120404761D01*
X188730000Y-120452380D01*
X188491904Y-120452380D01*
X189396666Y-119452380D02*
X190015714Y-119452380D01*
X189682380Y-119833333D01*
X189825238Y-119833333D01*
X189920476Y-119880952D01*
X189968095Y-119928571D01*
X190015714Y-120023809D01*
X190015714Y-120261904D01*
X189968095Y-120357142D01*
X189920476Y-120404761D01*
X189825238Y-120452380D01*
X189539523Y-120452380D01*
X189444285Y-120404761D01*
X189396666Y-120357142D01*
X185158095Y-120622380D02*
X185158095Y-119622380D01*
X185729523Y-120622380D02*
X185300952Y-120050952D01*
X185729523Y-119622380D02*
X185158095Y-120193809D01*
%TO.C,D2*%
X164361904Y-159837380D02*
X164361904Y-158837380D01*
X164600000Y-158837380D01*
X164742857Y-158885000D01*
X164838095Y-158980238D01*
X164885714Y-159075476D01*
X164933333Y-159265952D01*
X164933333Y-159408809D01*
X164885714Y-159599285D01*
X164838095Y-159694523D01*
X164742857Y-159789761D01*
X164600000Y-159837380D01*
X164361904Y-159837380D01*
X165314285Y-158932619D02*
X165361904Y-158885000D01*
X165457142Y-158837380D01*
X165695238Y-158837380D01*
X165790476Y-158885000D01*
X165838095Y-158932619D01*
X165885714Y-159027857D01*
X165885714Y-159123095D01*
X165838095Y-159265952D01*
X165266666Y-159837380D01*
X165885714Y-159837380D01*
X154678095Y-161742380D02*
X154678095Y-160742380D01*
X155249523Y-161742380D02*
X154820952Y-161170952D01*
X155249523Y-160742380D02*
X154678095Y-161313809D01*
%TO.C,D1*%
X119911904Y-147352380D02*
X119911904Y-146352380D01*
X120150000Y-146352380D01*
X120292857Y-146400000D01*
X120388095Y-146495238D01*
X120435714Y-146590476D01*
X120483333Y-146780952D01*
X120483333Y-146923809D01*
X120435714Y-147114285D01*
X120388095Y-147209523D01*
X120292857Y-147304761D01*
X120150000Y-147352380D01*
X119911904Y-147352380D01*
X121435714Y-147352380D02*
X120864285Y-147352380D01*
X121150000Y-147352380D02*
X121150000Y-146352380D01*
X121054761Y-146495238D01*
X120959523Y-146590476D01*
X120864285Y-146638095D01*
%TO.C,C9*%
X198477142Y-143676666D02*
X198524761Y-143724285D01*
X198572380Y-143867142D01*
X198572380Y-143962380D01*
X198524761Y-144105238D01*
X198429523Y-144200476D01*
X198334285Y-144248095D01*
X198143809Y-144295714D01*
X198000952Y-144295714D01*
X197810476Y-144248095D01*
X197715238Y-144200476D01*
X197620000Y-144105238D01*
X197572380Y-143962380D01*
X197572380Y-143867142D01*
X197620000Y-143724285D01*
X197667619Y-143676666D01*
X198572380Y-143200476D02*
X198572380Y-143010000D01*
X198524761Y-142914761D01*
X198477142Y-142867142D01*
X198334285Y-142771904D01*
X198143809Y-142724285D01*
X197762857Y-142724285D01*
X197667619Y-142771904D01*
X197620000Y-142819523D01*
X197572380Y-142914761D01*
X197572380Y-143105238D01*
X197620000Y-143200476D01*
X197667619Y-143248095D01*
X197762857Y-143295714D01*
X198000952Y-143295714D01*
X198096190Y-143248095D01*
X198143809Y-143200476D01*
X198191428Y-143105238D01*
X198191428Y-142914761D01*
X198143809Y-142819523D01*
X198096190Y-142771904D01*
X198000952Y-142724285D01*
%TO.C,C8*%
X150963333Y-119397142D02*
X150915714Y-119444761D01*
X150772857Y-119492380D01*
X150677619Y-119492380D01*
X150534761Y-119444761D01*
X150439523Y-119349523D01*
X150391904Y-119254285D01*
X150344285Y-119063809D01*
X150344285Y-118920952D01*
X150391904Y-118730476D01*
X150439523Y-118635238D01*
X150534761Y-118540000D01*
X150677619Y-118492380D01*
X150772857Y-118492380D01*
X150915714Y-118540000D01*
X150963333Y-118587619D01*
X151534761Y-118920952D02*
X151439523Y-118873333D01*
X151391904Y-118825714D01*
X151344285Y-118730476D01*
X151344285Y-118682857D01*
X151391904Y-118587619D01*
X151439523Y-118540000D01*
X151534761Y-118492380D01*
X151725238Y-118492380D01*
X151820476Y-118540000D01*
X151868095Y-118587619D01*
X151915714Y-118682857D01*
X151915714Y-118730476D01*
X151868095Y-118825714D01*
X151820476Y-118873333D01*
X151725238Y-118920952D01*
X151534761Y-118920952D01*
X151439523Y-118968571D01*
X151391904Y-119016190D01*
X151344285Y-119111428D01*
X151344285Y-119301904D01*
X151391904Y-119397142D01*
X151439523Y-119444761D01*
X151534761Y-119492380D01*
X151725238Y-119492380D01*
X151820476Y-119444761D01*
X151868095Y-119397142D01*
X151915714Y-119301904D01*
X151915714Y-119111428D01*
X151868095Y-119016190D01*
X151820476Y-118968571D01*
X151725238Y-118920952D01*
%TO.C,C7*%
X172553333Y-156567142D02*
X172505714Y-156614761D01*
X172362857Y-156662380D01*
X172267619Y-156662380D01*
X172124761Y-156614761D01*
X172029523Y-156519523D01*
X171981904Y-156424285D01*
X171934285Y-156233809D01*
X171934285Y-156090952D01*
X171981904Y-155900476D01*
X172029523Y-155805238D01*
X172124761Y-155710000D01*
X172267619Y-155662380D01*
X172362857Y-155662380D01*
X172505714Y-155710000D01*
X172553333Y-155757619D01*
X172886666Y-155662380D02*
X173553333Y-155662380D01*
X173124761Y-156662380D01*
%TO.C,C6*%
X164893333Y-137177142D02*
X164845714Y-137224761D01*
X164702857Y-137272380D01*
X164607619Y-137272380D01*
X164464761Y-137224761D01*
X164369523Y-137129523D01*
X164321904Y-137034285D01*
X164274285Y-136843809D01*
X164274285Y-136700952D01*
X164321904Y-136510476D01*
X164369523Y-136415238D01*
X164464761Y-136320000D01*
X164607619Y-136272380D01*
X164702857Y-136272380D01*
X164845714Y-136320000D01*
X164893333Y-136367619D01*
X165750476Y-136272380D02*
X165560000Y-136272380D01*
X165464761Y-136320000D01*
X165417142Y-136367619D01*
X165321904Y-136510476D01*
X165274285Y-136700952D01*
X165274285Y-137081904D01*
X165321904Y-137177142D01*
X165369523Y-137224761D01*
X165464761Y-137272380D01*
X165655238Y-137272380D01*
X165750476Y-137224761D01*
X165798095Y-137177142D01*
X165845714Y-137081904D01*
X165845714Y-136843809D01*
X165798095Y-136748571D01*
X165750476Y-136700952D01*
X165655238Y-136653333D01*
X165464761Y-136653333D01*
X165369523Y-136700952D01*
X165321904Y-136748571D01*
X165274285Y-136843809D01*
%TO.C,C5*%
X164893333Y-142257142D02*
X164845714Y-142304761D01*
X164702857Y-142352380D01*
X164607619Y-142352380D01*
X164464761Y-142304761D01*
X164369523Y-142209523D01*
X164321904Y-142114285D01*
X164274285Y-141923809D01*
X164274285Y-141780952D01*
X164321904Y-141590476D01*
X164369523Y-141495238D01*
X164464761Y-141400000D01*
X164607619Y-141352380D01*
X164702857Y-141352380D01*
X164845714Y-141400000D01*
X164893333Y-141447619D01*
X165798095Y-141352380D02*
X165321904Y-141352380D01*
X165274285Y-141828571D01*
X165321904Y-141780952D01*
X165417142Y-141733333D01*
X165655238Y-141733333D01*
X165750476Y-141780952D01*
X165798095Y-141828571D01*
X165845714Y-141923809D01*
X165845714Y-142161904D01*
X165798095Y-142257142D01*
X165750476Y-142304761D01*
X165655238Y-142352380D01*
X165417142Y-142352380D01*
X165321904Y-142304761D01*
X165274285Y-142257142D01*
%TO.C,C4*%
X186523333Y-159107142D02*
X186475714Y-159154761D01*
X186332857Y-159202380D01*
X186237619Y-159202380D01*
X186094761Y-159154761D01*
X185999523Y-159059523D01*
X185951904Y-158964285D01*
X185904285Y-158773809D01*
X185904285Y-158630952D01*
X185951904Y-158440476D01*
X185999523Y-158345238D01*
X186094761Y-158250000D01*
X186237619Y-158202380D01*
X186332857Y-158202380D01*
X186475714Y-158250000D01*
X186523333Y-158297619D01*
X187380476Y-158535714D02*
X187380476Y-159202380D01*
X187142380Y-158154761D02*
X186904285Y-158869047D01*
X187523333Y-158869047D01*
%TO.C,C3*%
X175053333Y-137857142D02*
X175005714Y-137904761D01*
X174862857Y-137952380D01*
X174767619Y-137952380D01*
X174624761Y-137904761D01*
X174529523Y-137809523D01*
X174481904Y-137714285D01*
X174434285Y-137523809D01*
X174434285Y-137380952D01*
X174481904Y-137190476D01*
X174529523Y-137095238D01*
X174624761Y-137000000D01*
X174767619Y-136952380D01*
X174862857Y-136952380D01*
X175005714Y-137000000D01*
X175053333Y-137047619D01*
X175386666Y-136952380D02*
X176005714Y-136952380D01*
X175672380Y-137333333D01*
X175815238Y-137333333D01*
X175910476Y-137380952D01*
X175958095Y-137428571D01*
X176005714Y-137523809D01*
X176005714Y-137761904D01*
X175958095Y-137857142D01*
X175910476Y-137904761D01*
X175815238Y-137952380D01*
X175529523Y-137952380D01*
X175434285Y-137904761D01*
X175386666Y-137857142D01*
%TO.C,C2*%
X178943333Y-135907142D02*
X178895714Y-135954761D01*
X178752857Y-136002380D01*
X178657619Y-136002380D01*
X178514761Y-135954761D01*
X178419523Y-135859523D01*
X178371904Y-135764285D01*
X178324285Y-135573809D01*
X178324285Y-135430952D01*
X178371904Y-135240476D01*
X178419523Y-135145238D01*
X178514761Y-135050000D01*
X178657619Y-135002380D01*
X178752857Y-135002380D01*
X178895714Y-135050000D01*
X178943333Y-135097619D01*
X179324285Y-135097619D02*
X179371904Y-135050000D01*
X179467142Y-135002380D01*
X179705238Y-135002380D01*
X179800476Y-135050000D01*
X179848095Y-135097619D01*
X179895714Y-135192857D01*
X179895714Y-135288095D01*
X179848095Y-135430952D01*
X179276666Y-136002380D01*
X179895714Y-136002380D01*
%TO.C,C1*%
X161758333Y-143067142D02*
X161710714Y-143114761D01*
X161567857Y-143162380D01*
X161472619Y-143162380D01*
X161329761Y-143114761D01*
X161234523Y-143019523D01*
X161186904Y-142924285D01*
X161139285Y-142733809D01*
X161139285Y-142590952D01*
X161186904Y-142400476D01*
X161234523Y-142305238D01*
X161329761Y-142210000D01*
X161472619Y-142162380D01*
X161567857Y-142162380D01*
X161710714Y-142210000D01*
X161758333Y-142257619D01*
X162710714Y-143162380D02*
X162139285Y-143162380D01*
X162425000Y-143162380D02*
X162425000Y-142162380D01*
X162329761Y-142305238D01*
X162234523Y-142400476D01*
X162139285Y-142448095D01*
D11*
%TO.C,Q2*%
X181020000Y-127390000D02*
X177170000Y-127390000D01*
X181402631Y-127967955D02*
G75*
G03*
X181020000Y-127390000I-2322631J-1122045D01*
G01*
X176723600Y-130188807D02*
G75*
G03*
X179080000Y-131690000I2356400J1098807D01*
G01*
X177170000Y-127390000D02*
G75*
G03*
X176777617Y-127977736I1910000J-1700000D01*
G01*
X179080000Y-131690000D02*
G75*
G03*
X181436400Y-130188807I0J2600000D01*
G01*
%TO.C,Q1*%
X191100000Y-140130000D02*
X194950000Y-140130000D01*
X190717369Y-139552045D02*
G75*
G03*
X191100000Y-140130000I2322631J1122045D01*
G01*
X195396400Y-137331193D02*
G75*
G03*
X193040000Y-135830000I-2356400J-1098807D01*
G01*
X194950000Y-140130000D02*
G75*
G03*
X195342383Y-139542264I-1910000J1700000D01*
G01*
X193040000Y-135830000D02*
G75*
G03*
X190683600Y-137331193I0J-2600000D01*
G01*
%TO.C,J3*%
X125984000Y-126238000D02*
X125984000Y-118618000D01*
X115824000Y-118618000D02*
X115824000Y-126238000D01*
X115824000Y-119888000D02*
X125984000Y-119888000D01*
X125984000Y-118618000D02*
X115824000Y-118618000D01*
X115824000Y-126238000D02*
X125984000Y-126238000D01*
%TO.C,U1*%
X145305000Y-160080000D02*
X146955000Y-160080000D01*
X145305000Y-124400000D02*
X145305000Y-160080000D01*
X148955000Y-160080000D02*
X150605000Y-160080000D01*
X150605000Y-160080000D02*
X150605000Y-124400000D01*
X150605000Y-124400000D02*
X145305000Y-124400000D01*
X148955000Y-160080000D02*
G75*
G03*
X146955000Y-160080000I-1000000J0D01*
G01*
%TO.C,Y1*%
X154955000Y-133935000D02*
X154955000Y-140185000D01*
X160005000Y-133935000D02*
X160005000Y-140185000D01*
X154955000Y-140185000D02*
G75*
G03*
X160005000Y-140185000I2525000J0D01*
G01*
X160005000Y-133935000D02*
G75*
G03*
X154955000Y-133935000I-2525000J0D01*
G01*
%TO.C,U3*%
X156150000Y-118400000D02*
X156150000Y-119650000D01*
X156150000Y-122900000D02*
X176590000Y-122900000D01*
X176590000Y-118400000D02*
X156150000Y-118400000D01*
X156150000Y-121650000D02*
X156150000Y-122900000D01*
X176590000Y-122900000D02*
X176590000Y-118400000D01*
X156150000Y-121650000D02*
G75*
G03*
X156150000Y-119650000I0J1000000D01*
G01*
%TO.C,U2*%
X179345000Y-142190000D02*
X179345000Y-152470000D01*
X183845000Y-142190000D02*
X182595000Y-142190000D01*
X179345000Y-152470000D02*
X183845000Y-152470000D01*
X183845000Y-152470000D02*
X183845000Y-142190000D01*
X180595000Y-142190000D02*
X179345000Y-142190000D01*
X180595000Y-142190000D02*
G75*
G03*
X182595000Y-142190000I1000000J0D01*
G01*
%TO.C,SW1*%
X161160000Y-149000000D02*
X161160000Y-151200000D01*
X160690000Y-147030000D02*
X155490000Y-147030000D01*
X154920000Y-151200000D02*
X154920000Y-149000000D01*
X160090000Y-153270000D02*
X155690000Y-153270000D01*
X159454214Y-150150000D02*
G75*
G03*
X159454214Y-150150000I-1414214J0D01*
G01*
%TO.C,R9*%
X194850000Y-131980000D02*
X194850000Y-132310000D01*
X201390000Y-134720000D02*
X194850000Y-134720000D01*
X201390000Y-131980000D02*
X194850000Y-131980000D01*
X201390000Y-132310000D02*
X201390000Y-131980000D01*
X201390000Y-134390000D02*
X201390000Y-134720000D01*
X194850000Y-134720000D02*
X194850000Y-134390000D01*
%TO.C,R8*%
X203100000Y-137065000D02*
X203430000Y-137065000D01*
X203430000Y-143605000D02*
X203100000Y-143605000D01*
X205510000Y-143605000D02*
X205840000Y-143605000D01*
X205840000Y-143605000D02*
X205840000Y-137065000D01*
X203100000Y-143605000D02*
X203100000Y-137065000D01*
X205840000Y-137065000D02*
X205510000Y-137065000D01*
%TO.C,R7*%
X192500000Y-118210000D02*
X192500000Y-117880000D01*
X185960000Y-115470000D02*
X192500000Y-115470000D01*
X185960000Y-118210000D02*
X192500000Y-118210000D01*
X185960000Y-117880000D02*
X185960000Y-118210000D01*
X185960000Y-115800000D02*
X185960000Y-115470000D01*
X192500000Y-115470000D02*
X192500000Y-115800000D01*
%TO.C,R6*%
X171350000Y-135350000D02*
X171680000Y-135350000D01*
X174090000Y-128810000D02*
X174090000Y-135350000D01*
X171350000Y-128810000D02*
X171350000Y-135350000D01*
X171680000Y-128810000D02*
X171350000Y-128810000D01*
X173760000Y-128810000D02*
X174090000Y-128810000D01*
X174090000Y-135350000D02*
X173760000Y-135350000D01*
%TO.C,R5*%
X181710000Y-117380000D02*
X181380000Y-117380000D01*
X178970000Y-123920000D02*
X178970000Y-117380000D01*
X181710000Y-123920000D02*
X181710000Y-117380000D01*
X181380000Y-123920000D02*
X181710000Y-123920000D01*
X179300000Y-123920000D02*
X178970000Y-123920000D01*
X178970000Y-117380000D02*
X179300000Y-117380000D01*
%TO.C,R4*%
X162020000Y-157580000D02*
X162020000Y-157250000D01*
X155480000Y-154840000D02*
X162020000Y-154840000D01*
X155480000Y-157580000D02*
X162020000Y-157580000D01*
X155480000Y-157250000D02*
X155480000Y-157580000D01*
X155480000Y-155170000D02*
X155480000Y-154840000D01*
X162020000Y-154840000D02*
X162020000Y-155170000D01*
%TO.C,R3*%
X131350000Y-148490000D02*
X131350000Y-148820000D01*
X137890000Y-151230000D02*
X131350000Y-151230000D01*
X137890000Y-148490000D02*
X131350000Y-148490000D01*
X137890000Y-148820000D02*
X137890000Y-148490000D01*
X137890000Y-150900000D02*
X137890000Y-151230000D01*
X131350000Y-151230000D02*
X131350000Y-150900000D01*
%TO.C,R2*%
X184880000Y-156310000D02*
X184880000Y-155980000D01*
X178340000Y-153570000D02*
X184880000Y-153570000D01*
X178340000Y-156310000D02*
X184880000Y-156310000D01*
X178340000Y-155980000D02*
X178340000Y-156310000D01*
X178340000Y-153900000D02*
X178340000Y-153570000D01*
X184880000Y-153570000D02*
X184880000Y-153900000D01*
%TO.C,R1*%
X184690000Y-131980000D02*
X184690000Y-132310000D01*
X191230000Y-134720000D02*
X184690000Y-134720000D01*
X191230000Y-131980000D02*
X184690000Y-131980000D01*
X191230000Y-132310000D02*
X191230000Y-131980000D01*
X191230000Y-134390000D02*
X191230000Y-134720000D01*
X184690000Y-134720000D02*
X184690000Y-134390000D01*
%TO.C,J2*%
X132095000Y-121290000D02*
X129495000Y-121290000D01*
X137235000Y-123890000D02*
X137235000Y-118690000D01*
X129495000Y-118690000D02*
X137235000Y-118690000D01*
X129495000Y-123890000D02*
X129495000Y-122560000D01*
X132095000Y-123890000D02*
X137235000Y-123890000D01*
X132095000Y-123890000D02*
X132095000Y-121290000D01*
X130825000Y-123890000D02*
X129495000Y-123890000D01*
X129495000Y-121290000D02*
X129495000Y-118690000D01*
%TO.C,D4*%
X188286000Y-126080000D02*
X188286000Y-127920000D01*
X187590000Y-127920000D02*
X190870000Y-127920000D01*
X190870000Y-126080000D02*
X187590000Y-126080000D01*
X186410000Y-127000000D02*
X187590000Y-127000000D01*
X187590000Y-126080000D02*
X187590000Y-127920000D01*
X192050000Y-127000000D02*
X190870000Y-127000000D01*
X190870000Y-127920000D02*
X190870000Y-126080000D01*
X188046000Y-126080000D02*
X188046000Y-127920000D01*
X188166000Y-126080000D02*
X188166000Y-127920000D01*
%TO.C,D3*%
X188286000Y-121000000D02*
X188286000Y-122840000D01*
X187590000Y-122840000D02*
X190870000Y-122840000D01*
X190870000Y-121000000D02*
X187590000Y-121000000D01*
X186410000Y-121920000D02*
X187590000Y-121920000D01*
X187590000Y-121000000D02*
X187590000Y-122840000D01*
X192050000Y-121920000D02*
X190870000Y-121920000D01*
X190870000Y-122840000D02*
X190870000Y-121000000D01*
X188046000Y-121000000D02*
X188046000Y-122840000D01*
X188166000Y-121000000D02*
X188166000Y-122840000D01*
%TO.C,D2*%
X157806000Y-158465000D02*
X157806000Y-160305000D01*
X157110000Y-160305000D02*
X160390000Y-160305000D01*
X160390000Y-158465000D02*
X157110000Y-158465000D01*
X155930000Y-159385000D02*
X157110000Y-159385000D01*
X157110000Y-158465000D02*
X157110000Y-160305000D01*
X161570000Y-159385000D02*
X160390000Y-159385000D01*
X160390000Y-160305000D02*
X160390000Y-158465000D01*
X157566000Y-158465000D02*
X157566000Y-160305000D01*
X157686000Y-158465000D02*
X157686000Y-160305000D01*
%TO.C,D1*%
X119090000Y-148624000D02*
X119090000Y-148780000D01*
X119090000Y-150940000D02*
X119090000Y-151096000D01*
X121691130Y-148780163D02*
G75*
G03*
X119609039Y-148780000I-1041130J-1079837D01*
G01*
X119090000Y-151095516D02*
G75*
G03*
X122322335Y-150938608I1560000J1235516D01*
G01*
X119609039Y-150940000D02*
G75*
G03*
X121691130Y-150939837I1040961J1080000D01*
G01*
X122322335Y-148781392D02*
G75*
G03*
X119090000Y-148624484I-1672335J-1078608D01*
G01*
%TO.C,C9*%
X199605000Y-138660000D02*
X199590000Y-138660000D01*
X201730000Y-143200000D02*
X201715000Y-143200000D01*
X201730000Y-138660000D02*
X201715000Y-138660000D01*
X199605000Y-143200000D02*
X199590000Y-143200000D01*
X201730000Y-138660000D02*
X201730000Y-143200000D01*
X199590000Y-138660000D02*
X199590000Y-143200000D01*
%TO.C,C8*%
X153400000Y-115785000D02*
X153400000Y-115770000D01*
X148860000Y-117910000D02*
X148860000Y-117895000D01*
X153400000Y-117910000D02*
X153400000Y-117895000D01*
X148860000Y-115785000D02*
X148860000Y-115770000D01*
X153400000Y-117910000D02*
X148860000Y-117910000D01*
X153400000Y-115770000D02*
X148860000Y-115770000D01*
%TO.C,C7*%
X165330000Y-157265000D02*
X165330000Y-157280000D01*
X169870000Y-155140000D02*
X169870000Y-155155000D01*
X165330000Y-155140000D02*
X165330000Y-155155000D01*
X169870000Y-157265000D02*
X169870000Y-157280000D01*
X165330000Y-155140000D02*
X169870000Y-155140000D01*
X165330000Y-157280000D02*
X169870000Y-157280000D01*
%TO.C,C6*%
X167330000Y-133565000D02*
X167330000Y-133550000D01*
X162790000Y-135690000D02*
X162790000Y-135675000D01*
X167330000Y-135690000D02*
X167330000Y-135675000D01*
X162790000Y-133565000D02*
X162790000Y-133550000D01*
X167330000Y-135690000D02*
X162790000Y-135690000D01*
X167330000Y-133550000D02*
X162790000Y-133550000D01*
%TO.C,C5*%
X167330000Y-138645000D02*
X167330000Y-138630000D01*
X162790000Y-140770000D02*
X162790000Y-140755000D01*
X167330000Y-140770000D02*
X167330000Y-140755000D01*
X162790000Y-138645000D02*
X162790000Y-138630000D01*
X167330000Y-140770000D02*
X162790000Y-140770000D01*
X167330000Y-138630000D02*
X162790000Y-138630000D01*
%TO.C,C4*%
X183920000Y-157695000D02*
X183920000Y-157680000D01*
X179380000Y-159820000D02*
X179380000Y-159805000D01*
X183920000Y-159820000D02*
X183920000Y-159805000D01*
X179380000Y-157695000D02*
X179380000Y-157680000D01*
X183920000Y-159820000D02*
X179380000Y-159820000D01*
X183920000Y-157680000D02*
X179380000Y-157680000D01*
%TO.C,C3*%
X172950000Y-140770000D02*
X177490000Y-140770000D01*
X172950000Y-138630000D02*
X177490000Y-138630000D01*
X177490000Y-140755000D02*
X177490000Y-140770000D01*
X172950000Y-138630000D02*
X172950000Y-138645000D01*
X177490000Y-138630000D02*
X177490000Y-138645000D01*
X172950000Y-140755000D02*
X172950000Y-140770000D01*
%TO.C,C2*%
X181380000Y-132295000D02*
X181380000Y-132280000D01*
X176840000Y-134420000D02*
X176840000Y-134405000D01*
X181380000Y-134420000D02*
X181380000Y-134405000D01*
X176840000Y-132295000D02*
X176840000Y-132280000D01*
X181380000Y-134420000D02*
X176840000Y-134420000D01*
X181380000Y-132280000D02*
X176840000Y-132280000D01*
%TO.C,C1*%
X155250000Y-145835000D02*
X155250000Y-145850000D01*
X159790000Y-143710000D02*
X159790000Y-143725000D01*
X155250000Y-143710000D02*
X155250000Y-143725000D01*
X159790000Y-145835000D02*
X159790000Y-145850000D01*
X155250000Y-143710000D02*
X159790000Y-143710000D01*
X155250000Y-145850000D02*
X159790000Y-145850000D01*
%TD*%
M02*
